HIERARCHY
ROOT Hips
{
    OFFSET   0.000000   0.000000   0.000000
    CHANNELS 6 Xposition Yposition Zposition Zrotation Xrotation Yrotation
    JOINT Chest
    {
        OFFSET   0.000000   8.007230   0.000000
        CHANNELS 3 Zrotation Xrotation Yrotation
        JOINT Chest2
        {
            OFFSET   0.000000  22.077100   0.000000
            CHANNELS 3 Zrotation Xrotation Yrotation
            JOINT Neck
            {
                OFFSET   0.000000  23.254800  -0.000021
                CHANNELS 3 Zrotation Xrotation Yrotation
                JOINT Head
                {
                    OFFSET   0.000000  14.370000   1.956610
                    CHANNELS 3 Zrotation Xrotation Yrotation
                    End Site
                    {
                        OFFSET   0.000000  19.566000   0.000000
                    }
                }
            }
            JOINT LeftCollar
            {
                OFFSET   3.911900  19.017000  -0.467063
                CHANNELS 3 Zrotation Xrotation Yrotation
                JOINT LeftShoulder
                {
                    OFFSET  10.383700   0.000000   0.000000
                    CHANNELS 3 Zrotation Xrotation Yrotation
                    JOINT LeftElbow
                    {
                        OFFSET  26.662100   0.001529   0.000325
                        CHANNELS 3 Zrotation Xrotation Yrotation
                        JOINT LeftWrist
                        {
                            OFFSET  28.869000  -0.000011  -0.000096
                            CHANNELS 3 Zrotation Xrotation Yrotation
                            JOINT LeftFinger0
                            {
                                OFFSET   2.044650  -2.323460   3.252850
                                CHANNELS 3 Zrotation Xrotation Yrotation
                                JOINT LeftFinger01
                                {
                                    OFFSET   3.088130   0.000000   0.000000
                                    CHANNELS 3 Zrotation Xrotation Yrotation
                                    JOINT LeftFinger02
                                    {
                                        OFFSET   2.639460   0.000000   0.000000
                                        CHANNELS 3 Zrotation Xrotation Yrotation
                                        End Site
                                        {
                                            OFFSET   2.582190   0.000000   0.000000
                                        }
                                    }
                                }
                            }
                            JOINT LeftFinger1
                            {
                                OFFSET   8.364480   0.000000   3.252850
                                CHANNELS 3 Zrotation Xrotation Yrotation
                                JOINT LeftFinger11
                                {
                                    OFFSET   4.646930   0.000000   0.000000
                                    CHANNELS 3 Zrotation Xrotation Yrotation
                                    JOINT LeftFinger12
                                    {
                                        OFFSET   2.323460   0.000000   0.000000
                                        CHANNELS 3 Zrotation Xrotation Yrotation
                                        End Site
                                        {
                                            OFFSET   2.273050   0.000000   0.000000
                                        }
                                    }
                                }
                            }
                            JOINT LeftFinger2
                            {
                                OFFSET   8.364480   0.000016   1.078090
                                CHANNELS 3 Zrotation Xrotation Yrotation
                                JOINT LeftFinger21
                                {
                                    OFFSET   5.111620   0.000000   0.000000
                                    CHANNELS 3 Zrotation Xrotation Yrotation
                                    JOINT LeftFinger22
                                    {
                                        OFFSET   2.788160   0.000017   0.000000
                                        CHANNELS 3 Zrotation Xrotation Yrotation
                                        End Site
                                        {
                                            OFFSET   2.727660   0.000000   0.000000
                                        }
                                    }
                                }
                            }
                            JOINT LeftFinger3
                            {
                                OFFSET   7.899780   0.000015  -1.078090
                                CHANNELS 3 Zrotation Xrotation Yrotation
                                JOINT LeftFinger31
                                {
                                    OFFSET   4.646920   0.000000   0.000000
                                    CHANNELS 3 Zrotation Xrotation Yrotation
                                    JOINT LeftFinger32
                                    {
                                        OFFSET   2.323470   0.000000   0.000000
                                        CHANNELS 3 Zrotation Xrotation Yrotation
                                        End Site
                                        {
                                            OFFSET   2.273050   0.000000   0.000000
                                        }
                                    }
                                }
                            }
                            JOINT LeftFinger4
                            {
                                OFFSET   7.435090   0.000000  -3.252850
                                CHANNELS 3 Zrotation Xrotation Yrotation
                                JOINT LeftFinger41
                                {
                                    OFFSET   3.717550   0.000000   0.000000
                                    CHANNELS 3 Zrotation Xrotation Yrotation
                                    JOINT LeftFinger42
                                    {
                                        OFFSET   1.858760   0.000000   0.000000
                                        CHANNELS 3 Zrotation Xrotation Yrotation
                                        End Site
                                        {
                                            OFFSET   1.818440   0.000000   0.000000
                                        }
                                    }
                                }
                            }
                        }
                    }
                }
            }
            JOINT RightCollar
            {
                OFFSET  -3.911900  19.017000  -0.467062
                CHANNELS 3 Zrotation Xrotation Yrotation
                JOINT RightShoulder
                {
                    OFFSET -10.383700   0.000015   0.000000
                    CHANNELS 3 Zrotation Xrotation Yrotation
                    JOINT RightElbow
                    {
                        OFFSET -26.662100   0.001341   0.000385
                        CHANNELS 3 Zrotation Xrotation Yrotation
                        JOINT RightWrist
                        {
                            OFFSET -28.869000   0.000025  -0.000080
                            CHANNELS 3 Zrotation Xrotation Yrotation
                            JOINT RightFinger0
                            {
                                OFFSET  -2.044650  -2.323490   3.252850
                                CHANNELS 3 Zrotation Xrotation Yrotation
                                JOINT RightFinger01
                                {
                                    OFFSET  -3.088130   0.000000   0.000000
                                    CHANNELS 3 Zrotation Xrotation Yrotation
                                    JOINT RightFinger02
                                    {
                                        OFFSET  -2.639460   0.000000   0.000000
                                        CHANNELS 3 Zrotation Xrotation Yrotation
                                        End Site
                                        {
                                            OFFSET  -2.582190   0.000000   0.000000
                                        }
                                    }
                                }
                            }
                            JOINT RightFinger1
                            {
                                OFFSET  -8.364480   0.000000   3.252850
                                CHANNELS 3 Zrotation Xrotation Yrotation
                                JOINT RightFinger11
                                {
                                    OFFSET  -4.646930   0.000000   0.000000
                                    CHANNELS 3 Zrotation Xrotation Yrotation
                                    JOINT RightFinger12
                                    {
                                        OFFSET  -2.323470   0.000000   0.000000
                                        CHANNELS 3 Zrotation Xrotation Yrotation
                                        End Site
                                        {
                                            OFFSET  -2.273050   0.000000   0.000000
                                        }
                                    }
                                }
                            }
                            JOINT RightFinger2
                            {
                                OFFSET  -8.364480   0.000000   1.078090
                                CHANNELS 3 Zrotation Xrotation Yrotation
                                JOINT RightFinger21
                                {
                                    OFFSET  -5.111610   0.000000   0.000000
                                    CHANNELS 3 Zrotation Xrotation Yrotation
                                    JOINT RightFinger22
                                    {
                                        OFFSET  -2.788160   0.000000   0.000000
                                        CHANNELS 3 Zrotation Xrotation Yrotation
                                        End Site
                                        {
                                            OFFSET  -2.727660   0.000000   0.000000
                                        }
                                    }
                                }
                            }
                            JOINT RightFinger3
                            {
                                OFFSET  -7.899780   0.000000  -1.078090
                                CHANNELS 3 Zrotation Xrotation Yrotation
                                JOINT RightFinger31
                                {
                                    OFFSET  -4.646920   0.000000   0.000000
                                    CHANNELS 3 Zrotation Xrotation Yrotation
                                    JOINT RightFinger32
                                    {
                                        OFFSET  -2.323470   0.000000   0.000000
                                        CHANNELS 3 Zrotation Xrotation Yrotation
                                        End Site
                                        {
                                            OFFSET  -2.273050   0.000000   0.000000
                                        }
                                    }
                                }
                            }
                            JOINT RightFinger4
                            {
                                OFFSET  -7.435090   0.000000  -3.252850
                                CHANNELS 3 Zrotation Xrotation Yrotation
                                JOINT RightFinger41
                                {
                                    OFFSET  -3.717550   0.000000   0.000000
                                    CHANNELS 3 Zrotation Xrotation Yrotation
                                    JOINT RightFinger42
                                    {
                                        OFFSET  -1.858770   0.000000   0.000000
                                        CHANNELS 3 Zrotation Xrotation Yrotation
                                        End Site
                                        {
                                            OFFSET  -1.818440   0.000000   0.000000
                                        }
                                    }
                                }
                            }
                        }
                    }
                }
            }
        }
    }
    JOINT LeftHip
    {
        OFFSET   9.783010   0.000000   0.000000
        CHANNELS 3 Zrotation Xrotation Yrotation
        JOINT LeftKnee
        {
            OFFSET   0.000070 -41.789100   0.000028
            CHANNELS 3 Zrotation Xrotation Yrotation
            JOINT LeftAnkle
            {
                OFFSET   0.000087 -41.133200  -0.000100
                CHANNELS 3 Zrotation Xrotation Yrotation
                JOINT LeftToe
                {
                    OFFSET   0.000000  -6.358960  14.674500
                    CHANNELS 3 Zrotation Xrotation Yrotation
                    End Site
                    {
                        OFFSET   0.000000   0.000000   3.913200
                    }
                }
            }
        }
    }
    JOINT RightHip
    {
        OFFSET  -9.783020   0.000000   0.000000
        CHANNELS 3 Zrotation Xrotation Yrotation
        JOINT RightKnee
        {
            OFFSET   0.000044 -41.789100  -0.000870
            CHANNELS 3 Zrotation Xrotation Yrotation
            JOINT RightAnkle
            {
                OFFSET  -0.000090 -41.133200  -0.000245
                CHANNELS 3 Zrotation Xrotation Yrotation
                JOINT RightToe
                {
                    OFFSET   0.000000  -6.358960  14.674500
                    CHANNELS 3 Zrotation Xrotation Yrotation
                    End Site
                    {
                        OFFSET   0.000000   0.000000   3.913200
                    }
                }
            }
        }
    }
}
MOTION
Frames: 4
Frame Time:   0.016667
 -6.173070  88.185400   4.090260  -4.734920 -18.511200  -3.831020   1.132490  10.677300  -1.748270   2.673980  21.311400  -3.817560  12.566700   8.977240  -1.992150  21.809500  15.586800   6.626990  -2.468360   1.147200   9.938490 -69.763700  25.769300 -11.997900  -4.957670  -8.812520 -18.678300  12.060000   3.085860  11.150000  44.209500  34.847500 -74.801700 -21.406100  -0.002484  -0.000910  -5.703080  -0.003439  -0.003980 -30.152400   7.599050 -12.823000 -25.370100   0.000619   0.001155 -17.759000  -0.001010   0.000903 -28.463600   1.868100  -3.441600 -36.347800  -0.004066   0.000738 -24.207600   0.002037   0.001089 -26.724600   1.454380  -2.885880 -26.761300  -0.007954   0.000383 -17.823000   0.000899   0.001340 -26.513100   0.569639  -1.141650 -39.778100   0.002308  -0.000363 -26.492200  -0.000597   0.001013   4.720160  -2.620470   3.089380  47.166600  -2.166150  67.403000  -5.108610 -33.176300  99.188400 -16.363900 -25.674200  -7.975420 -34.586500  27.799900  70.256100  28.644700   0.001479  -0.000700   9.322360  -0.004931   0.003104  50.720100  -2.088230  -1.708130  41.523600  -0.000915  -0.001201  31.142700   0.000907  -0.000777  30.165700  -3.743470  -6.406730  45.565000  -0.000625  -0.000000  30.346300  -0.000882   0.000942  28.394300  -4.809820  -8.822360  40.674900  -0.001380   0.001313  27.089600  -0.002116   0.001440  37.304300  -6.611540  -8.589560  56.701800  -0.000340   0.004417  37.763300   0.000164  -0.000749   9.228060   6.538650   1.254940  -3.802540  29.191000  12.608000  -7.804930 -16.773000   5.323950  -0.000000   0.000000   0.000000   9.889310  19.148100  -8.311320   0.713594   2.216620  -7.825800 -13.655700  -0.795713  -0.680714   0.000000   0.000000   0.000000
 -6.151420  88.184800   4.112500  -4.736270 -18.531300  -3.781910   1.133760  10.682600  -1.744030   2.676290  21.322100  -3.809180  12.644400   9.013580  -2.012850  21.950300  15.617400   6.136740  -2.456210   1.152860   9.951040 -69.753500  25.817200 -12.041000  -4.962930  -8.822700 -18.715800  12.053500   3.108970  11.135700  44.243500  34.850700 -74.800800 -21.397700  -0.002482  -0.000914  -5.698850  -0.003441  -0.003973 -30.141000   7.594870 -12.823400 -25.360200   0.000621   0.001155 -17.752100  -0.001010   0.000904 -28.463600   1.868270  -3.441950 -36.335100  -0.004068   0.000738 -24.199100   0.002038   0.001088 -26.717500   1.455590  -2.889170 -26.754200  -0.007953   0.000384 -17.818300   0.000899   0.001336 -26.511400   0.568206  -1.138940 -39.775600   0.002307  -0.000363 -26.490500  -0.000597   0.001016   4.688950  -2.663430   3.083500  47.063400  -2.096040  67.408000  -4.836350 -33.061800  99.296000 -15.100500 -26.543900  -7.711840 -35.105500  27.767300  69.856600  28.196600   0.001421  -0.000602   9.098320  -0.004928   0.003012  50.584500  -2.110400  -1.734240  41.413100  -0.000860  -0.001042  31.059900   0.000832  -0.000741  29.990800  -3.749600  -6.459850  45.305400  -0.000642   0.000000  30.173400  -0.000797   0.000861  28.395600  -4.720000  -8.662870  40.253600  -0.001413   0.001285  26.809000  -0.002061   0.001345  36.942700  -6.532100  -8.604880  56.151200  -0.000340   0.004385  37.396600   0.000160  -0.000748   9.228570   6.544140   1.235530  -3.805670  29.217600  12.593500  -7.795000 -16.789700   5.314190  -0.000000   0.000000   0.000000   9.896870  19.177200  -8.322360   0.709210   2.228200  -7.848240 -13.638500  -0.811988  -0.705147  -0.000000   0.000000   0.000000
 -6.132180  88.184300   4.134580  -4.740810 -18.545600  -3.728490   1.139030  10.688900  -1.744430   2.687450  21.334600  -3.810550  12.720800   9.047920  -2.033080  22.087800  15.645200   5.613220  -2.446360   1.155100   9.977900 -69.759800  25.833700 -12.075000  -4.990200  -8.805280 -18.758200  12.082100   3.104960  11.136400  44.213600  34.776100 -74.707900 -21.418300  -0.002490  -0.000920  -5.709140  -0.003440  -0.003975 -30.157200   7.578780 -12.792300 -25.370100   0.000622   0.001151 -17.759000  -0.001008   0.000906 -28.465600   1.850930  -3.409540 -36.369000  -0.004067   0.000741 -24.221700   0.002037   0.001089 -26.735000   1.444080  -2.864230 -26.771100  -0.007952   0.000386 -17.829600   0.000899   0.001337 -26.536400   0.553792  -1.108950 -39.812600   0.002307  -0.000365 -26.515200  -0.000597   0.001013   4.660490  -2.715410   3.087370  47.038000  -1.980600  67.386400  -4.490870 -32.919900  99.672100 -14.025200 -27.257100  -7.498860 -35.605400  27.863200  69.692600  27.795200   0.001357  -0.000636   8.897620  -0.004922   0.002915  50.700100  -2.092960  -1.713430  41.506900  -0.000794  -0.000831  31.130200   0.000768  -0.000686  29.791200  -3.742800  -6.475560  45.003000  -0.000667   0.000000  29.972000  -0.000703   0.000804  28.404600  -4.592560  -8.430080  39.953500  -0.001452   0.001257  26.609100  -0.001999   0.001250  36.604000  -6.422630  -8.570570  55.627200  -0.000354   0.004345  37.047600   0.000163  -0.000752   9.236640   6.537260   1.213130  -3.806300  29.250200  12.578000  -7.788120 -16.805500   5.300150  -0.000000   0.000000   0.000000   9.913230  19.197900  -8.338400   0.701068   2.241500  -7.872470 -13.623200  -0.828160  -0.729563  -0.000000   0.000000  -0.000000
 -6.114240  88.184000   4.156130  -4.746420 -18.557900  -3.674370   1.145690  10.696200  -1.747030   2.702080  21.348900  -3.818290  12.791000   9.084750  -2.052970  22.216900  15.679500   5.069950  -2.435300   1.156200  10.019500 -69.775700  25.843400 -12.106400  -5.030420  -8.787860 -18.800700  12.115100   3.076840  11.141600  44.135700  34.670400 -74.578300 -21.441600  -0.002500  -0.000925  -5.720810  -0.003438  -0.003978 -30.183300   7.559980 -12.745900 -25.387300   0.000622   0.001147 -17.771100  -0.001007   0.000907 -28.468600   1.823560  -3.358320 -36.426500  -0.004067   0.000744 -24.260100   0.002035   0.001090 -26.763400   1.425730  -2.824410 -26.798500  -0.007951   0.000387 -17.847800   0.000899   0.001338 -26.576600   0.533515  -1.066400 -39.872300   0.002307  -0.000367 -26.555000  -0.000597   0.001008   4.633880  -2.769980   3.096610  47.093800  -1.846660  67.363800  -4.216470 -32.752400 100.182000 -13.048200 -27.941000  -7.287030 -35.890300  28.004500  69.554400  27.426600   0.001297  -0.000669   8.713310  -0.004917   0.002817  50.943100  -2.055210  -1.668720  41.704400  -0.000727  -0.000578  31.278300   0.000716  -0.000619  29.602000  -3.695970  -6.477470  44.715000  -0.000694   0.000000  29.780200  -0.000609   0.000754  28.414100  -4.443610  -8.156760  39.663700  -0.001492   0.001231  26.416000  -0.001935   0.001157  36.248500  -6.287080  -8.497600  55.071600  -0.000371   0.004294  36.677600   0.000165  -0.000759   9.247630   6.524970   1.199640  -3.804170  29.285000  12.559800  -7.782790 -16.817600   5.282130   0.000000   0.000000   0.000000   9.934250  19.216400  -8.355330   0.693372   2.253840  -7.894730 -13.609100  -0.843211  -0.756012   0.000000   0.000000   0.000000
